<svg width="34" height="44" viewBox="0 0 34 44" fill="none" xmlns="http://www.w3.org/2000/svg">
<path d="M31.1316 33.9247C30.9231 34.0159 30.6894 34.0457 30.462 34.0098C30.2346 33.974 30.0247 33.8744 29.8605 33.7245C29.6964 33.5746 29.5861 33.3816 29.5444 33.1717C29.5028 32.9618 29.5319 32.7451 29.6277 32.5511C29.6105 32.4447 29.598 32.3683 29.5807 32.2619C29.5619 32.2446 29.543 32.2273 29.5241 32.2101C27.6166 30.4714 24.3851 31.7381 24.3913 34.2158C24.3968 36.4148 24.174 38.7059 24.8052 40.7891C25.0847 41.7098 25.5346 42.5787 26.1349 43.357C22.3599 40.1345 19.3777 36.1984 17.3907 31.8158C16.8933 30.7156 16.4628 29.5904 16.1012 28.4457C15.8056 27.507 15.5552 26.5582 15.3501 25.5994C14.243 20.395 14.4858 15.0218 16.0586 9.92112C17.2916 8.49703 18.0232 6.7574 18.1549 4.93669C18.2045 4.28132 18.1513 3.62276 17.997 2.98149C17.8267 3.07303 17.6498 3.15752 17.4745 3.23811C17.4196 3.26254 17.3618 3.28813 17.3069 3.31257L17.2862 3.32164C17.0918 3.40644 16.8752 3.43746 16.6623 3.41097C16.4494 3.38447 16.2493 3.3016 16.0861 3.17231C15.9229 3.04303 15.8035 2.87286 15.7424 2.68227C15.6813 2.49169 15.6811 2.28882 15.7416 2.0981C15.7794 1.97943 15.8173 1.86078 15.8552 1.74215C15.9116 1.55979 15.9722 1.37903 16.0287 1.19669C16.0364 1.17844 16.0431 1.15978 16.0485 1.14083C16.1141 0.932477 16.1808 0.726887 16.2463 0.518543C15.8374 0.258248 15.3691 0.0888644 14.8778 0.0236056C13.1829 -0.187793 11.5352 1.04978 11.0663 2.5699C10.5945 4.09114 11.1306 5.76207 12.1163 7.05358C12.9593 8.15951 14.1021 9.03068 15.3 9.81632C15.2656 9.93235 15.2271 10.0468 15.1928 10.1628C14.5683 12.291 14.1707 14.4707 14.0058 16.6706C13.3255 14.5406 12.1085 12.5904 10.4549 10.9805C8.84943 9.50499 6.67215 8.58142 4.65579 7.54889C2.23382 6.30866 -0.651193 8.37436 0.1305 10.8315C0.13807 10.8553 0.145698 10.8791 0.153388 10.9028C0.395603 10.9293 0.636516 10.9637 0.87612 11.006C1.1778 11.0606 1.45461 11.1983 1.67029 11.401C1.88598 11.6037 2.03047 11.8619 2.08485 12.1418C2.13922 12.4218 2.10093 12.7104 1.97501 12.9699C1.84908 13.2294 1.64139 13.4476 1.37914 13.596L1.35228 13.6112C1.71732 14.2379 2.13331 14.838 2.59666 15.4063C3.90884 16.9857 5.55945 18.2972 7.44503 19.2586C9.33061 20.22 11.4105 20.8105 13.5543 20.9932C13.6942 21.0033 13.8311 21.0146 13.9698 21.022C14.1524 24.0037 14.7533 26.9508 15.7572 29.7891C16.3552 31.4615 17.0983 33.0863 17.9793 34.6479L17.9445 34.5939C16.7531 32.9394 14.9813 31.716 12.9281 31.1304C9.88997 30.2858 6.40875 30.8884 3.34471 30.45C1.86977 30.239 0.752924 31.6807 1.52698 32.8615C1.53933 32.8803 1.55174 32.8992 1.56421 32.918C1.98984 32.9144 2.41529 32.9354 2.83811 32.9807C3.08033 33.0073 3.32125 33.0417 3.56084 33.084C3.86252 33.1386 4.13934 33.2762 4.35503 33.4789C4.57072 33.6816 4.71521 33.9398 4.76958 34.2198C4.82396 34.4997 4.78567 34.7884 4.65974 35.0479C4.53381 35.3074 4.32612 35.5256 4.06387 35.674L4.03698 35.6892C4.01755 35.6999 4.00105 35.7095 3.98165 35.7202C5.22324 36.853 6.6663 37.7796 8.24759 38.4594C10.1887 39.2718 12.2887 39.7088 14.4188 39.7436C16.5488 39.7783 18.6642 39.4101 20.635 38.6615L20.638 38.6603C22.1405 40.5996 23.8568 42.3891 25.7592 44L34 40.8132C33.9913 40.717 33.9784 40.6193 33.9667 40.5242C33.2239 40.8636 32.4391 41.1175 31.6296 41.2803C31.9275 40.3496 32.2229 39.4135 32.5208 38.4828C32.5286 38.4646 32.5352 38.4459 32.5407 38.427C32.6904 37.9517 32.8442 37.4781 32.9939 37.0028L32.9939 37.0023C32.5185 35.9068 31.8927 34.8724 31.1319 33.9247L31.1316 33.9247ZM13.9368 20.3958L13.9387 20.3887L13.9393 20.4013L13.9368 20.3958ZM18.9881 36.3285L18.8506 36.2084C18.8054 36.1006 18.7573 35.994 18.7049 35.8859C18.6913 35.8558 18.6719 35.828 18.6583 35.7979C18.77 35.9762 18.8788 36.1557 18.9935 36.3329L18.9881 36.3285Z" fill="#F2F2F2"/>
</svg>
