<svg width="30" height="41" viewBox="0 0 30 41" fill="none" xmlns="http://www.w3.org/2000/svg">
<path d="M28.5521 1.85138e-07H1.44418C1.06069 0.000537636 0.693138 0.142094 0.422322 0.393551C0.151507 0.645007 -0.000407179 0.985784 8.19707e-07 1.34094V41H30V1.34094C30.0001 1.16482 29.9627 0.990399 29.89 0.827667C29.8173 0.664936 29.7106 0.517078 29.5761 0.392543C29.4417 0.268007 29.282 0.169235 29.1063 0.10188C28.9306 0.0345245 28.7423 -9.23774e-05 28.5521 1.85138e-07ZM15.0893 22.5338C14.2416 22.5301 13.4297 22.2166 12.8303 21.6615C12.2308 21.1063 11.8923 20.3544 11.8883 19.5693V14.995C11.8883 14.2087 12.2256 13.4547 12.8259 12.8987C13.4262 12.3428 14.2404 12.0304 15.0893 12.0304C15.9383 12.0304 16.7525 12.3428 17.3528 12.8987C17.9531 13.4547 18.2903 14.2087 18.2903 14.995V19.5693C18.2864 20.3544 17.9479 21.1063 17.3484 21.6615C16.749 22.2166 15.9371 22.5301 15.0893 22.5338Z" fill="#E6E6E6"/>
</svg>
